<svg width="29" height="23" viewBox="0 0 29 23" fill="none" xmlns="http://www.w3.org/2000/svg">
<path d="M1.088 23C0.768 23 0.661333 22.8507 0.768 22.552L8.992 0.887999C9.056 0.695999 9.20533 0.599998 9.44 0.599998H13.152C13.472 0.599998 13.5787 0.749332 13.472 1.048L5.248 22.712C5.184 22.904 5.03467 23 4.8 23H1.088ZM16.213 23C15.893 23 15.7863 22.8507 15.893 22.552L24.117 0.887999C24.181 0.695999 24.3303 0.599998 24.565 0.599998H28.277C28.597 0.599998 28.7037 0.749332 28.597 1.048L20.373 22.712C20.309 22.904 20.1597 23 19.925 23H16.213Z" fill="#03FFA5"/>
</svg>
