<svg width="34" height="23" viewBox="0 0 34 23" fill="none" xmlns="http://www.w3.org/2000/svg">
<path d="M9.392 0.567999C10.6933 0.567999 11.8347 0.845332 12.816 1.4C13.8187 1.93333 14.5867 2.69067 15.12 3.672C15.6747 4.65333 15.952 5.784 15.952 7.064C15.952 8.344 15.6747 9.464 15.12 10.424C14.5653 11.384 13.776 12.1307 12.752 12.664C11.7493 13.1973 10.5867 13.464 9.264 13.464H3.632C3.54667 13.464 3.504 13.5067 3.504 13.592V22.68C3.504 22.8933 3.39733 23 3.184 23H0.752C0.538667 23 0.432 22.8933 0.432 22.68V0.887999C0.432 0.674665 0.538667 0.567999 0.752 0.567999H9.392ZM8.976 10.968C10.1493 10.968 11.088 10.616 11.792 9.912C12.5173 9.208 12.88 8.28 12.88 7.128C12.88 5.95467 12.5173 5.016 11.792 4.312C11.088 3.58667 10.1493 3.224 8.976 3.224H3.632C3.54667 3.224 3.504 3.26667 3.504 3.352V10.84C3.504 10.9253 3.54667 10.968 3.632 10.968H8.976ZM33.0968 14.232C33.3101 14.232 33.4167 14.3387 33.4167 14.552V16.664C33.4167 16.8773 33.3101 16.984 33.0968 16.984H31.7208C31.6354 16.984 31.5928 17.0267 31.5928 17.112V22.68C31.5928 22.8933 31.4861 23 31.2728 23H28.8408C28.6274 23 28.5208 22.8933 28.5208 22.68V17.112C28.5208 17.0267 28.4781 16.984 28.3928 16.984H18.6648C18.4514 16.984 18.3448 16.8773 18.3448 16.664V14.936C18.3448 14.8293 18.3768 14.7013 18.4408 14.552L24.7448 0.823999C24.8088 0.674665 24.9261 0.599998 25.0968 0.599998H27.6568C27.7634 0.599998 27.8381 0.642665 27.8808 0.727999C27.9448 0.791999 27.9554 0.877333 27.9128 0.983999L21.8968 14.072C21.8754 14.1147 21.8754 14.1573 21.8968 14.2C21.9181 14.2213 21.9501 14.232 21.9928 14.232H28.3928C28.4781 14.232 28.5208 14.1893 28.5208 14.104V9.336C28.5208 9.12267 28.6274 9.016 28.8408 9.016H31.2728C31.4861 9.016 31.5928 9.12267 31.5928 9.336V14.104C31.5928 14.1893 31.6354 14.232 31.7208 14.232H33.0968Z" fill="black"/>
</svg>
