<svg width="26" height="23" viewBox="0 0 26 23" fill="none" xmlns="http://www.w3.org/2000/svg">
<path d="M9.392 0.567999C10.6933 0.567999 11.8347 0.845332 12.816 1.4C13.8187 1.93333 14.5867 2.69067 15.12 3.672C15.6747 4.65333 15.952 5.784 15.952 7.064C15.952 8.344 15.6747 9.464 15.12 10.424C14.5653 11.384 13.776 12.1307 12.752 12.664C11.7493 13.1973 10.5867 13.464 9.264 13.464H3.664C3.55733 13.464 3.504 13.5173 3.504 13.624V22.52C3.504 22.6693 3.46133 22.7867 3.376 22.872C3.29067 22.9573 3.17333 23 3.024 23H0.912C0.762667 23 0.645334 22.9573 0.56 22.872C0.474667 22.7867 0.432 22.6693 0.432 22.52V1.048C0.432 0.898666 0.474667 0.781333 0.56 0.695999C0.645334 0.610666 0.762667 0.567999 0.912 0.567999H9.392ZM8.976 10.968C10.1493 10.968 11.088 10.616 11.792 9.912C12.5173 9.208 12.88 8.28 12.88 7.128C12.88 5.95467 12.5173 5.016 11.792 4.312C11.088 3.58667 10.1493 3.224 8.976 3.224H3.664C3.55733 3.224 3.504 3.27733 3.504 3.384V10.808C3.504 10.9147 3.55733 10.968 3.664 10.968H8.976ZM22.0248 0.727999C22.1954 0.642665 22.3981 0.599998 22.6328 0.599998H24.9048C25.0541 0.599998 25.1714 0.642665 25.2568 0.727999C25.3421 0.813332 25.3848 0.930665 25.3848 1.08V22.52C25.3848 22.6693 25.3421 22.7867 25.2568 22.872C25.1714 22.9573 25.0541 23 24.9048 23H22.7928C22.6434 23 22.5261 22.9573 22.4408 22.872C22.3554 22.7867 22.3128 22.6693 22.3128 22.52V3.768C22.3128 3.72533 22.2914 3.69333 22.2488 3.672C22.2061 3.62933 22.1634 3.61867 22.1208 3.64L18.9528 4.728C18.9101 4.74933 18.8461 4.76 18.7608 4.76C18.5261 4.76 18.4088 4.62133 18.4088 4.344V2.872C18.4088 2.63733 18.5261 2.456 18.7608 2.328L22.0248 0.727999Z" fill="black"/>
</svg>
