<svg width="32" height="24" viewBox="0 0 32 24" fill="none" xmlns="http://www.w3.org/2000/svg">
<path d="M9.392 0.567999C10.6933 0.567999 11.8347 0.845332 12.816 1.4C13.8187 1.93333 14.5867 2.69067 15.12 3.672C15.6747 4.65333 15.952 5.784 15.952 7.064C15.952 8.344 15.6747 9.464 15.12 10.424C14.5653 11.384 13.776 12.1307 12.752 12.664C11.7493 13.1973 10.5867 13.464 9.264 13.464H3.632C3.54667 13.464 3.504 13.5067 3.504 13.592V22.68C3.504 22.8933 3.39733 23 3.184 23H0.752C0.538667 23 0.432 22.8933 0.432 22.68V0.887999C0.432 0.674665 0.538667 0.567999 0.752 0.567999H9.392ZM8.976 10.968C10.1493 10.968 11.088 10.616 11.792 9.912C12.5173 9.208 12.88 8.28 12.88 7.128C12.88 5.95467 12.5173 5.016 11.792 4.312C11.088 3.58667 10.1493 3.224 8.976 3.224H3.632C3.54667 3.224 3.504 3.26667 3.504 3.352V10.84C3.504 10.9253 3.54667 10.968 3.632 10.968H8.976ZM31.2728 12.376C31.6994 13.4213 31.9128 14.6267 31.9128 15.992C31.9128 17.1227 31.7421 18.168 31.4008 19.128C30.9314 20.4507 30.1528 21.4747 29.0648 22.2C27.9768 22.904 26.6648 23.256 25.1288 23.256C23.5928 23.256 22.2594 22.8613 21.1288 22.072C20.0194 21.2827 19.2408 20.216 18.7928 18.872C18.5581 18.2747 18.4194 17.4213 18.3768 16.312C18.3768 16.0987 18.4834 15.992 18.6968 15.992H21.1608C21.3741 15.992 21.4808 16.0987 21.4808 16.312C21.5234 17.08 21.6088 17.6453 21.7368 18.008C21.9501 18.7973 22.3448 19.4267 22.9208 19.896C23.5181 20.3653 24.2541 20.6 25.1288 20.6C26.7501 20.6 27.8381 19.864 28.3928 18.392C28.6701 17.752 28.8088 16.92 28.8088 15.896C28.8088 14.808 28.6381 13.8373 28.2968 12.984C27.6994 11.6613 26.6328 11 25.0968 11C24.7341 11 24.2754 11.16 23.7208 11.48C23.6354 11.5227 23.5714 11.544 23.5288 11.544C23.4221 11.544 23.3368 11.4907 23.2728 11.384L22.0568 9.72C22.0141 9.63467 21.9928 9.56 21.9928 9.496C21.9928 9.432 22.0248 9.35733 22.0888 9.272L27.5608 3.416C27.6248 3.30933 27.6034 3.256 27.4968 3.256H18.9848C18.7714 3.256 18.6648 3.14933 18.6648 2.936V0.919998C18.6648 0.706665 18.7714 0.599998 18.9848 0.599998H31.4008C31.6141 0.599998 31.7208 0.706665 31.7208 0.919998V3.224C31.7208 3.33067 31.6674 3.45867 31.5608 3.608L26.6968 8.92C26.6541 8.96267 26.6434 9.00533 26.6648 9.048C26.6861 9.06933 26.7288 9.09067 26.7928 9.112C27.8808 9.21867 28.7981 9.56 29.5448 10.136C30.2914 10.6907 30.8674 11.4373 31.2728 12.376Z" fill="black"/>
</svg>
