<svg width="33" height="23" viewBox="0 0 33 23" fill="none" xmlns="http://www.w3.org/2000/svg">
<path d="M9.392 0.567999C10.6933 0.567999 11.8347 0.845332 12.816 1.4C13.8187 1.93333 14.5867 2.69067 15.12 3.672C15.6747 4.65333 15.952 5.784 15.952 7.064C15.952 8.344 15.6747 9.464 15.12 10.424C14.5653 11.384 13.776 12.1307 12.752 12.664C11.7493 13.1973 10.5867 13.464 9.264 13.464H3.632C3.54667 13.464 3.504 13.5067 3.504 13.592V22.68C3.504 22.8933 3.39733 23 3.184 23H0.752C0.538667 23 0.432 22.8933 0.432 22.68V0.887999C0.432 0.674665 0.538667 0.567999 0.752 0.567999H9.392ZM8.976 10.968C10.1493 10.968 11.088 10.616 11.792 9.912C12.5173 9.208 12.88 8.28 12.88 7.128C12.88 5.95467 12.5173 5.016 11.792 4.312C11.088 3.58667 10.1493 3.224 8.976 3.224H3.632C3.54667 3.224 3.504 3.26667 3.504 3.352V10.84C3.504 10.9253 3.54667 10.968 3.632 10.968H8.976ZM22.6968 20.184C22.6754 20.2267 22.6754 20.2693 22.6968 20.312C22.7181 20.3333 22.7501 20.344 22.7928 20.344H32.4248C32.6381 20.344 32.7448 20.4507 32.7448 20.664V22.68C32.7448 22.8933 32.6381 23 32.4248 23H19.0168C18.8034 23 18.6968 22.8933 18.6968 22.68V20.728C18.6968 20.5787 18.7501 20.4507 18.8568 20.344C19.5821 19.512 21.2461 17.56 23.8488 14.488L26.0568 11.832C28.0408 9.464 29.0328 7.62933 29.0328 6.328C29.0328 5.32533 28.6914 4.52533 28.0088 3.928C27.3474 3.30933 26.4621 3 25.3528 3C24.2434 3 23.3581 3.30933 22.6968 3.928C22.0354 4.54667 21.7154 5.35733 21.7368 6.36V7.32C21.7368 7.53333 21.6301 7.64 21.4168 7.64H18.9528C18.7394 7.64 18.6328 7.53333 18.6328 7.32V5.944C18.6754 4.83467 18.9848 3.85333 19.5608 3C20.1581 2.14667 20.9581 1.496 21.9608 1.048C22.9634 0.578666 24.0941 0.344 25.3528 0.344C26.7181 0.344 27.9128 0.6 28.9368 1.112C29.9608 1.624 30.7501 2.328 31.3048 3.224C31.8594 4.12 32.1368 5.13333 32.1368 6.264C32.1368 8.03467 31.1768 10.1253 29.2568 12.536C28.4034 13.624 27.3901 14.8507 26.2168 16.216C25.0434 17.56 23.8701 18.8827 22.6968 20.184Z" fill="black"/>
</svg>
